<svg width="35" height="35" viewBox="0 0 35 35" fill="none" xmlns="http://www.w3.org/2000/svg">
<path d="M33.5417 0L26.9792 24.0625L18.0877 16.1437L26.6219 7.13854L15.1827 15.0442L7.29168 13.125L33.5417 0ZM17.5 18.2306V26.25L20.6981 21.404L17.5 18.2306ZM13.4327 23.8554L14.8036 25.2175C13.5275 26.5081 12.2179 28.0365 11.7046 30.1394L9.82918 29.6815C10.4621 27.0944 12.0036 25.3006 13.4327 23.8554ZM11.1504 35C10.1077 35 9.1773 34.5931 8.39855 33.7896C6.2723 34.5406 4.25105 33.7254 3.18355 32.2088C2.34501 31.0173 2.15834 29.5065 2.66876 28.0598C1.86376 27.281 1.45834 26.3594 1.45834 25.3123C1.45834 23.0344 3.15001 21.2246 6.18334 21.541L6.46772 23.17C5.49938 23.2604 4.60543 23.3115 4.02647 23.8904C3.0523 24.8646 3.34543 26.899 5.17418 27.4385C3.96084 28.6577 4.07897 30.4092 4.98897 31.3702C5.94272 32.3765 7.76418 32.5354 9.02126 31.2842C9.58272 33.1873 11.6433 33.3579 12.5694 32.4319C13.1411 31.8602 13.1979 30.9808 13.2869 30.0271L14.9275 30.361C15.2192 33.2471 13.4561 35 11.1504 35ZM6.31168 24.745L6.76959 26.6219C9.32897 25.9948 11.0761 24.5073 12.5869 23.0183L11.219 21.6606C9.94147 22.9235 8.40876 24.2331 6.31168 24.745Z" fill="#12C7E6"/>
</svg>
